<svg width="293" height="293" viewBox="0 0 293 293" fill="none" xmlns="http://www.w3.org/2000/svg">
<path d="M155.771 16.5499L186.581 86.8241C187.741 89.4684 189.589 91.7532 191.932 93.4402C194.275 95.1272 197.028 96.1546 199.904 96.4153L274.962 103.145C283.455 104.381 286.842 114.796 280.685 120.794L224.145 168.292C219.567 172.137 217.484 178.181 218.743 184.018L235.178 260.953C236.62 269.4 227.762 275.855 220.162 271.849L154.649 233.484C152.178 232.033 149.365 231.268 146.5 231.268C143.635 231.268 140.822 232.033 138.351 233.484L72.8379 271.826C65.2611 275.809 56.3796 269.377 57.8217 260.93L74.2571 183.995C75.4932 178.158 73.4331 172.115 68.855 168.269L12.2922 120.817C6.15754 114.842 9.54535 104.404 18.0149 103.168L93.0732 96.4382C95.9488 96.1775 98.7018 95.1501 101.045 93.4631C103.388 91.7761 105.236 89.4913 106.396 86.847L137.206 16.5728C141.029 8.88157 151.971 8.88157 155.771 16.5499Z" fill="#FDD835"/>
<path d="M153.527 91.036L148.308 39.2574C148.102 36.3732 147.507 31.4288 152.131 31.4288C155.794 31.4288 157.785 39.0514 157.785 39.0514L173.442 80.6208C179.348 96.4382 176.922 101.863 171.222 105.068C164.675 108.73 155.015 105.869 153.527 91.036Z" fill="#FFFF8D"/>
<path d="M218.102 163.691L263.013 128.645C265.234 126.791 269.24 123.838 266.035 120.473C263.494 117.818 256.627 121.641 256.627 121.641L217.324 137C205.604 141.052 197.821 147.049 197.134 154.603C196.241 164.675 205.283 172.435 218.102 163.691Z" fill="#F4B400"/>
</svg>
